<svg width="180" height="62" xmlns="http://www.w3.org/2000/svg">
 <style type="text/css">.st0{fill:#FF6900;}
	.st1{fill:#FFFFFF;}</style>

 <g>
  <title>background</title>
  <rect fill="none" id="canvas_background" height="64" width="182" y="-1" x="-1"/>
 </g>
 <g>
  <title>Layer 1</title>
  <g id="svg_1">
   <g id="svg_2">
    <g id="svg_3">
     <path id="svg_4" d="m87.624435,36.618792l-12.582,0c-1.445,0 -2.227,0.993 -2.227,2.198l0,14.389c0,1.415 1.023,2.227 2.288,2.227c1.234,0 2.227,-0.813 2.227,-2.227l0,-12.222l8.037,0l0,12.221c0,1.415 0.993,2.227 2.258,2.227c1.234,0 2.258,-0.843 2.258,-2.258l0,-14.358c-0.001,-1.204 -0.813,-2.197 -2.259,-2.197z"/>
     <path id="svg_5" d="m109.539435,36.618792l-0.18,0c-1.324,0 -2.198,0.662 -3.131,1.987l-7.345,10.415l0,-10.175c0,-1.415 -0.903,-2.227 -2.137,-2.227c-1.264,0 -2.197,0.813 -2.197,2.227l0,13.877c0,1.505 0.963,2.529 2.498,2.529l0.211,0c1.415,0 2.318,-0.722 3.191,-1.987l7.345,-10.415l0,10.174c0,1.415 0.903,2.228 2.167,2.228c1.234,0 2.167,-0.813 2.167,-2.228l0,-13.877c0,-1.565 -0.933,-2.528 -2.589,-2.528z"/>
     <path id="svg_6" d="m134.644435,50.886792l-1.144,0l0,-12.221c0,-1.415 -1.023,-2.228 -2.288,-2.228c-1.234,0 -2.228,0.813 -2.228,2.228l0,12.221l-7.826,0l0,-12.221c0,-1.415 -0.963,-2.228 -2.258,-2.228c-1.264,0 -2.257,0.813 -2.257,2.228l0,14.389c0,1.204 0.813,2.197 2.227,2.197l13.546,0l0,1.987c0,1.415 0.963,2.227 2.197,2.227c1.264,0 2.227,-0.813 2.227,-2.227l0,-4.124c0.001,-1.476 -0.871,-2.228 -2.196,-2.228z"/>
     <path id="svg_7" d="m157.251435,50.886792l-1.144,0l0,-12.221c0,-1.415 -1.023,-2.228 -2.288,-2.228c-1.234,0 -2.228,0.813 -2.228,2.228l0,12.221l-7.826,0l0,-12.221c0,-1.415 -0.963,-2.228 -2.258,-2.228c-1.264,0 -2.257,0.813 -2.257,2.228l0,14.389c0,1.204 0.813,2.197 2.227,2.197l13.546,0l0,1.987c0,1.415 0.963,2.227 2.197,2.227c1.264,0 2.227,-0.813 2.227,-2.227l0,-4.124c0.001,-1.476 -0.872,-2.228 -2.196,-2.228z"/>
     <path id="svg_8" d="m179.256435,52.090792l-6.141,-13.365c-0.693,-1.475 -1.656,-2.107 -3.04,-2.107l-0.241,0c-1.445,0 -2.408,0.632 -3.1,2.107l-6.141,13.365c-0.602,1.324 -0.181,2.498 1.023,2.95c1.083,0.422 2.167,0.181 2.769,-1.083l1.385,-2.92c1.234,0.422 2.769,0.632 4.214,0.632c1.535,0 2.89,-0.211 4.033,-0.632l1.325,2.89c0.572,1.264 1.746,1.505 2.799,1.113c1.205,-0.452 1.686,-1.686 1.115,-2.95zm-9.272,-4.425c-0.933,0 -1.927,-0.12 -2.679,-0.331l2.619,-5.839l2.619,5.839c-0.723,0.211 -1.626,0.331 -2.559,0.331z"/>
    </g>
    <g id="svg_9">
     <path id="svg_10" d="m93.043435,21.034792l-1.144,0l0,-12.071c0,-1.204 -0.813,-2.197 -2.227,-2.197l-10.325,0c-1.204,0 -2.017,0.813 -2.017,2.227l0,2.92c0,2.107 -0.03,3.732 -0.391,5.478c-0.361,1.716 -0.813,2.769 -1.475,3.642l-0.511,0c-1.445,0 -2.137,0.903 -2.137,2.198l0,4.154c0,1.415 0.963,2.227 2.198,2.227c1.264,0 2.227,-0.813 2.227,-2.227l0,-1.987l13.576,0l0,1.987c0,1.415 0.963,2.227 2.197,2.227c1.264,0 2.227,-0.813 2.227,-2.227l0,-4.154c-0.001,-1.294 -0.693,-2.197 -2.198,-2.197zm-5.659,0l-7.315,0c0.452,-0.963 0.813,-1.836 1.114,-3.16c0.301,-1.385 0.422,-2.77 0.452,-4.576l0.03,-2.167l5.719,0l0,9.903z"/>
     <path id="svg_11" d="m105.837435,6.615792c-5.388,0 -9.542,4.064 -9.542,9.482c0,5.478 4.154,9.482 9.542,9.482c5.388,0 9.542,-4.154 9.542,-9.542c0,-5.418 -4.154,-9.422 -9.542,-9.422zm0,14.72c-2.95,0 -5.087,-2.228 -5.087,-5.268c0,-2.98 2.137,-5.208 5.087,-5.208c2.98,0 5.087,2.227 5.087,5.208c0,3.04 -2.017,5.268 -5.087,5.268z"/>
     <path id="svg_12" d="m148.733435,6.615792c-5.388,0 -9.542,4.064 -9.542,9.482c0,5.478 4.154,9.482 9.542,9.482c5.388,0 9.542,-4.154 9.542,-9.542c0,-5.418 -4.154,-9.422 -9.542,-9.422zm0,14.72c-2.95,0 -5.087,-2.228 -5.087,-5.268c0,-2.98 2.138,-5.208 5.087,-5.208c2.98,0 5.087,2.227 5.087,5.208c0,3.04 -2.017,5.268 -5.087,5.268z"/>
     <path id="svg_13" d="m136.089435,21.034792l-1.144,0l0,-12.071c0,-1.204 -0.813,-2.197 -2.227,-2.197l-10.325,0c-1.204,0 -2.017,0.813 -2.017,2.227l0,2.92c0,2.107 -0.03,3.732 -0.391,5.478c-0.361,1.716 -0.813,2.769 -1.475,3.642l-0.512,0c-1.445,0 -2.137,0.903 -2.137,2.198l0,4.154c0,1.415 0.963,2.227 2.198,2.227c1.264,0 2.227,-0.813 2.227,-2.227l0,-1.987l13.576,0l0,1.987c0,1.415 0.963,2.227 2.197,2.227c1.264,0 2.227,-0.813 2.227,-2.227l0,-4.154c0.001,-1.294 -0.692,-2.197 -2.197,-2.197zm-5.659,0l-7.315,0c0.452,-0.963 0.813,-1.836 1.114,-3.16c0.301,-1.385 0.422,-2.77 0.452,-4.576l0.03,-2.167l5.719,0l0,9.903z"/>
    </g>
   </g>
   <g id="svg_14">
    <path id="svg_15" d="m27.570435,0.850792c17.564,0 31.053,12.082 31.053,30.013c0,18.027 -13.489,30.305 -31.053,30.305l-19.698,0c-3.979,0 -7.279,-2.631 -7.279,-7.21l0,-45.606c0,-4.58 3.3,-7.503 7.279,-7.503l19.698,0l0,0.001z" class="st0"/>
    <path id="svg_16" d="m14.298435,32.454792c0,-5.555 -1.778,-10.606 -1.194,-13.77l-0.142,-0.183c-2.023,2.111 -3.339,1.553 -3.482,0.873c-0.288,-1.361 2.08,-3.027 3.433,-3.606c0.026,-0.089 0.061,-0.182 0.098,-0.276c-1.266,0.195 -2.753,0.035 -2.805,-0.871c-0.061,-1.074 2.095,-2.033 4.913,-1.795c0.053,-0.045 0.108,-0.09 0.163,-0.135c-0.177,-0.071 -0.367,-0.159 -0.604,-0.281c-0.728,-0.375 -0.905,-0.998 -0.667,-1.451c0.261,-0.498 1.058,-0.692 1.704,-0.678c1.014,0.021 1.877,0.267 2.508,0.523c0.071,-0.03 0.143,-0.06 0.211,-0.086c-0.234,-0.183 -0.438,-0.382 -0.557,-0.586c-0.174,-0.299 -0.217,-0.71 0.12,-0.976c0.394,-0.311 1.394,-0.421 2.298,0.4c0.187,0.169 0.345,0.334 0.488,0.492c0.101,-0.019 0.202,-0.039 0.304,-0.055c-0.149,-0.23 -0.268,-0.47 -0.306,-0.693c-0.053,-0.305 0.047,-0.633 0.405,-0.749c0.391,-0.127 0.886,0.074 1.143,0.455c0.275,0.408 0.444,0.91 0.55,1.267c-1.993,0.232 -7.279,1.439 -7.279,7.828c0,6.23 5.176,12.775 5.176,22.432c-0.008,3.509 -0.782,7.029 -3.963,11.129c-2.456,3.166 -6.358,6.221 -12.442,8.729c1.043,0.509 2.237,0.777 3.501,0.777l2.187,0c5.033,-2.788 7.531,-5.344 9.262,-7.742c3.375,1.504 6.622,2.15 9.548,2.15c5.486,0 10.162,-2.527 12.6,-7.034c2.509,-1.506 4.173,-4.602 4.278,-6.814c1.563,-1.966 1.852,-4.448 1.372,-6.123c-0.115,-0.399 -0.439,-0.411 -1.001,-0.069c-4.943,2.964 -9.73,4.375 -14.298,4.375c-2.77,0 -5.611,-0.44 -8.634,-1.315c-0.216,-3.24 -0.881,-5.957 -1.129,-7.604c-0.353,-2.175 0.149,-3.784 2.536,-3.784c1.751,0 4.991,0.445 7.58,1.622c2.564,1.166 4.09,3.461 5.156,3.461c0.433,0 0.888,-0.269 0.888,-1.185c0,-1.856 -0.662,-4.844 -1.485,-5.909c2.399,-0.137 4.305,-0.112 5.377,0.009c2.234,0.388 2.339,1.509 2.779,2.24c0.44,0.731 1.186,1.049 2.083,1.049c1.661,0 2.697,-0.857 2.697,-3.95c0,-6.794 -4.289,-10.087 -8.787,-10.087c-3.693,0 -5.119,0.812 -8.626,0.812c-2.488,0 -4.549,-5.062 -7.376,-5.727c-1.249,-2.777 -4.049,-3.09 -5.774,-1.695c-1.566,-0.953 -4.015,-0.439 -4.116,1.32c-1.802,-0.558 -4.129,0.414 -3.126,2.782c-4.406,0.125 -5.228,4.021 -2.238,4.456c-3.849,2.178 -2.09,5.94 1.14,5.14c0.228,2.672 1.311,6.986 1.311,9.965c0,4.143 -1.879,5.105 -4.448,5.105c-2.03,0 -5.01,-0.737 -7.029,-1.313l0,2.889c2.043,0.508 5.107,1.16 7.406,1.16c4.047,0.001 6.293,-2.374 6.293,-6.898zm8.927,9.385c2.773,0.77 6.606,1.181 9.786,0.958c5.589,-0.392 9.785,-2.473 12.147,-3.988c-1.419,3.584 -6.741,5.81 -11.901,6.44c-0.033,0.261 -0.072,0.516 -0.119,0.762c3.871,-0.206 7.547,-1.464 9.213,-2.613c-0.953,3.525 -5.688,4.942 -9.986,5.146c-0.121,0.277 -0.249,0.538 -0.381,0.786c2.503,0.045 4.9,-0.419 6.328,-0.869c-1.285,2.453 -5.72,4.391 -10.237,4.391c-2.22,0 -4.99,-0.433 -7.394,-1.577c1.737,-3.178 2.406,-6.435 2.544,-9.436zm11.18,-19.872c0.609,-1.815 1.138,-3.184 2.126,-4.228c1.041,-1.1 2.197,-1.444 4.735,-1.444c3.505,0 6.433,3.543 6.433,8.495c0,0.736 -0.988,0.731 -1.305,0.058c-1.192,-2.105 -2.807,-2.408 -5.351,-2.595c-1.877,-0.11 -4.141,0.049 -6.203,0.137c-0.385,0.02 -0.493,-0.249 -0.435,-0.423z"/>
    <path id="svg_17" d="m0.593435,47.003792c2.118,-0.421 4.202,-0.811 4.202,-0.811l0.266,-1.142c-0.956,-0.048 -2.852,-0.026 -4.468,0.018l0,1.935z"/>
    <path id="svg_18" d="m23.420435,12.905792c0.74,-0.249 1.803,0.481 2.372,1.625c0.569,1.144 0.429,2.278 -0.311,2.522c-0.734,0.26 -1.792,-0.47 -2.364,-1.62c-0.077,-0.155 -0.138,-0.309 -0.189,-0.461l0.129,-0.036c0.237,0.225 0.52,0.287 0.709,0.166c0.26,-0.171 0.233,-0.625 0.013,-1.017c-0.157,-0.321 -0.52,-0.657 -0.82,-0.632l-0.052,-0.068c0.112,-0.229 0.282,-0.399 0.513,-0.479m5.187,11.512c-3.314,-0.728 -6.941,-1.69 -8.875,-4.533c-0.036,-0.053 -0.102,-0.077 -0.164,-0.059c-0.061,0.017 -0.105,0.073 -0.108,0.137c-0.007,0.155 0.014,0.325 0.049,0.494l-0.262,0.099c-0.51,-0.718 -0.614,-1.59 -0.108,-2.217c0.728,-0.902 2.205,-0.81 3.087,-0.253l-0.112,0.243c-0.473,-0.079 -0.924,-0.079 -1.276,0.135c-0.299,0.182 -0.34,0.452 -0.156,0.794c1.606,2.985 6.276,3.633 11.825,3.201c0.573,-0.045 0.705,-0.303 0.779,-0.579c0.482,-1.922 1.356,-3.636 2.657,-4.942c-1.012,0.142 -1.953,0.174 -2.774,0.219c-2.866,0.181 -4.505,-0.195 -5.017,-0.604l0.093,-0.249c0.305,0.105 0.622,0.129 0.687,0.039c0.089,-0.121 0.021,-0.197 -0.119,-0.32c-0.544,-0.51 -2.989,-3.016 -2.984,-3.002c-0.264,-2.119 -3.35,-2.196 -4.58,-0.111l-0.418,-0.112c0.122,-0.457 0.305,-0.83 0.475,-1.101c-2.577,0.582 -4.043,2.895 -4.309,5.129c-1.142,9.603 13.422,7.384 17.585,11.23c0.079,0.062 0.277,0.344 0.419,0.166c0.162,-0.523 -1.672,-2.759 -6.394,-3.804" class="st1"/>
    <path id="svg_19" d="m45.154435,38.803792c-2.361,1.514 -6.561,3.598 -12.147,3.99c-3.178,0.223 -7.016,-0.19 -9.787,-0.96c-0.043,0.924 -0.136,1.878 -0.295,2.841c1.562,0.401 4.343,0.931 8.355,1.045c-0.179,1.079 -1.274,4.74 -4.078,7.107c5.111,0.214 9.742,-1.773 11.104,-4.371c-1.428,0.45 -3.826,0.914 -6.328,0.869c0.132,-0.247 0.26,-0.509 0.381,-0.786c4.296,-0.203 9.033,-1.623 9.986,-5.146c-1.666,1.148 -5.345,2.407 -9.213,2.613c0.047,-0.246 0.086,-0.5 0.119,-0.762c5.159,-0.629 10.485,-2.859 11.903,-6.44z" class="st1"/>
   </g>
  </g>
 </g>
</svg>