<?xml version="1.0" encoding="utf-8"?>
<!-- Generator: Adobe Illustrator 25.0.1, SVG Export Plug-In . SVG Version: 6.00 Build 0)  -->
<svg version="1.1" id="Layer_1" xmlns="http://www.w3.org/2000/svg" xmlns:xlink="http://www.w3.org/1999/xlink" x="0px" y="0px"
	 viewBox="0 0 533.643 141.088" style="enable-background:new 0 0 533.643 141.088;" xml:space="preserve">
<style type="text/css">
	.st0{fill:#FF6900;}
	.st1{fill:#FFFFFF;}
</style>
<g>
	<g>
		<path class="st0" d="M67.067,35.541c20.383,0,36.038,14.022,36.038,34.83c0,20.92-15.654,35.169-36.038,35.169H44.206
			c-4.617,0-8.447-3.053-8.447-8.368V44.248c0-5.315,3.829-8.707,8.447-8.707H67.067z"/>
		<path d="M46.734,105.547c5.848-3.238,8.749-6.205,10.759-8.99c3.916,1.745,7.685,2.495,11.081,2.495
			c6.366,0,11.793-2.932,14.622-8.163c2.912-1.748,4.843-5.341,4.964-7.908c1.814-2.282,2.149-5.162,1.592-7.106
			c-0.133-0.464-0.51-0.477-1.162-0.08c-5.737,3.439-11.292,5.078-16.594,5.078c-3.215,0-6.512-0.511-10.02-1.526
			c-0.25-3.761-1.023-6.913-1.31-8.824c-0.41-2.524,0.173-4.391,2.943-4.391c2.032,0,5.792,0.516,8.796,1.882
			c2.976,1.353,4.746,4.017,5.983,4.017c0.502,0,1.031-0.312,1.031-1.375c0-2.154-0.768-5.622-1.723-6.857
			c2.784-0.159,4.996-0.131,6.24,0.01c2.592,0.451,2.714,1.752,3.225,2.6c0.51,0.848,1.376,1.218,2.417,1.218
			c1.928,0,3.13-0.994,3.13-4.584c0-7.885-4.977-11.706-10.198-11.706c-4.286,0-5.941,0.943-10.011,0.943
			c-2.887,0-5.279-5.874-8.56-6.647c-1.449-3.223-4.699-3.587-6.701-1.967c-1.818-1.106-4.66-0.51-4.777,1.532
			c-2.091-0.647-4.792,0.481-3.628,3.229c-5.113,0.145-6.067,4.666-2.598,5.171c-4.466,2.528-2.425,6.893,1.323,5.965
			c0.264,3.101,1.521,8.107,1.521,11.565c0,4.808-2.181,5.924-5.162,5.924c-2.356,0-5.814-0.856-8.157-1.524v3.352
			c2.371,0.59,5.927,1.346,8.595,1.346c4.699,0,7.306-2.757,7.306-8.007c0-6.447-2.063-12.308-1.386-15.98l-0.165-0.213
			c-2.348,2.45-3.874,1.802-4.041,1.013c-0.335-1.58,2.414-3.513,3.984-4.185c0.03-0.103,0.07-0.211,0.113-0.32
			c-1.469,0.227-3.195,0.041-3.255-1.011c-0.071-1.247,2.431-2.36,5.701-2.083c0.062-0.052,0.126-0.104,0.189-0.157
			c-0.206-0.082-0.425-0.185-0.701-0.327c-0.845-0.435-1.051-1.159-0.774-1.684c0.303-0.577,1.227-0.803,1.978-0.787
			c1.177,0.025,2.178,0.31,2.91,0.607c0.083-0.035,0.166-0.07,0.245-0.1c-0.272-0.212-0.508-0.444-0.646-0.68
			c-0.202-0.347-0.252-0.824,0.14-1.133c0.457-0.361,1.618-0.489,2.667,0.464c0.217,0.197,0.401,0.387,0.567,0.571
			c0.117-0.022,0.234-0.045,0.353-0.064c-0.173-0.267-0.311-0.546-0.356-0.804c-0.061-0.354,0.054-0.735,0.47-0.869
			c0.454-0.147,1.028,0.086,1.327,0.528c0.32,0.474,0.515,1.056,0.638,1.471c-2.313,0.269-8.448,1.67-8.448,9.085
			c0,7.231,6.007,14.826,6.007,26.033c-0.01,4.072-0.908,8.157-4.6,12.916c-2.851,3.675-7.38,7.221-14.442,10.132
			c1.212,0.594,2.601,0.906,4.071,0.906H46.734z M74.999,60.049c0.706-2.106,1.321-3.695,2.467-4.907
			c1.208-1.277,2.55-1.675,5.495-1.675c4.067,0,7.465,4.111,7.465,9.859c0,0.854-1.146,0.848-1.514,0.067
			c-1.384-2.443-3.258-2.794-6.209-3.011c-2.178-0.128-4.806,0.057-7.199,0.159C75.056,60.563,74.931,60.251,74.999,60.049z
			 M62.024,83.11c3.218,0.894,7.667,1.371,11.357,1.112c6.487-0.455,11.356-2.87,14.097-4.629
			c-1.646,4.159-7.823,6.743-13.812,7.474c-0.039,0.303-0.084,0.598-0.138,0.884c4.492-0.239,8.758-1.699,10.692-3.032
			c-1.106,4.091-6.6,5.735-11.589,5.972c-0.141,0.321-0.289,0.625-0.443,0.912c2.905,0.052,5.686-0.487,7.344-1.009
			c-1.492,2.847-6.638,5.096-11.88,5.096c-2.577,0-5.791-0.502-8.581-1.83C61.087,90.373,61.864,86.594,62.024,83.11z"/>
		<path d="M35.759,89.104c2.458-0.488,4.877-0.941,4.877-0.941l0.308-1.325c-1.11-0.056-3.309-0.03-5.185,0.02V89.104z"/>
		<path class="st1" d="M62.251,49.532c0.859-0.289,2.093,0.558,2.753,1.886c0.66,1.328,0.497,2.644-0.36,2.927
			c-0.851,0.301-2.08-0.546-2.744-1.88c-0.09-0.18-0.16-0.359-0.22-0.535l0.15-0.042c0.275,0.261,0.604,0.333,0.823,0.192
			c0.302-0.198,0.27-0.725,0.016-1.18c-0.182-0.372-0.603-0.763-0.952-0.733l-0.061-0.079
			C61.785,49.822,61.983,49.625,62.251,49.532 M68.27,62.892c-3.845-0.845-8.055-1.961-10.299-5.261
			c-0.042-0.061-0.118-0.089-0.19-0.069c-0.071,0.02-0.122,0.085-0.125,0.159c-0.008,0.18,0.016,0.377,0.056,0.574l-0.305,0.115
			c-0.592-0.833-0.712-1.846-0.126-2.573c0.845-1.047,2.559-0.939,3.582-0.294l-0.13,0.282c-0.549-0.092-1.072-0.092-1.48,0.156
			c-0.347,0.211-0.395,0.524-0.181,0.922c1.864,3.465,7.283,4.216,13.723,3.715c0.665-0.052,0.818-0.352,0.904-0.672
			c0.559-2.231,1.573-4.219,3.083-5.736c-1.174,0.165-2.266,0.202-3.219,0.254c-3.326,0.21-5.228-0.227-5.822-0.701l0.109-0.289
			c0.354,0.122,0.721,0.149,0.797,0.046c0.104-0.141,0.024-0.229-0.138-0.371c-0.631-0.592-3.469-3.5-3.463-3.483
			c-0.307-2.46-3.888-2.548-5.315-0.129l-0.485-0.13c0.141-0.531,0.353-0.963,0.551-1.278c-2.991,0.676-4.692,3.359-5,5.953
			c-1.326,11.144,15.577,8.569,20.407,13.032c0.092,0.072,0.321,0.399,0.487,0.192C75.878,66.699,73.75,64.104,68.27,62.892"/>
		<path class="st1" d="M87.474,79.587c-2.74,1.757-7.614,4.176-14.097,4.631c-3.688,0.259-8.142-0.221-11.358-1.114
			c-0.049,1.072-0.158,2.18-0.342,3.297c1.812,0.466,5.04,1.081,9.696,1.212c-0.207,1.252-1.479,5.501-4.732,8.248
			c5.931,0.249,11.306-2.058,12.886-5.073c-1.657,0.522-4.441,1.061-7.344,1.009c0.154-0.287,0.302-0.59,0.443-0.912
			c4.985-0.236,10.484-1.884,11.59-5.972c-1.933,1.332-6.203,2.793-10.692,3.032c0.054-0.285,0.099-0.581,0.138-0.884
			C79.647,86.33,85.828,83.743,87.474,79.587z"/>
	</g>
	<g>
		<g>
			<path d="M502.412,82.183l-11.447-24.966c-1.308-2.726-3.053-3.925-5.669-3.925h-0.436c-2.726,0-4.47,1.199-5.778,3.925
				l-11.447,24.966c-1.09,2.507-0.327,4.688,1.962,5.56c2.071,0.763,4.034,0.327,5.233-2.071l2.617-5.451
				c2.289,0.763,5.233,1.199,7.85,1.199c2.835,0,5.451-0.436,7.523-1.199l2.507,5.451c1.09,2.398,3.271,2.835,5.233,2.071
				C502.63,86.871,503.502,84.582,502.412,82.183z M485.077,73.897c-1.744,0-3.598-0.218-5.015-0.654l4.906-10.902l4.906,10.902
				C488.457,73.679,486.822,73.897,485.077,73.897z"/>
			<path d="M461.202,79.894h-2.18V56.999c0-2.617-1.962-4.143-4.252-4.143c-2.289,0-4.143,1.526-4.143,4.143v22.895h-14.609V56.999
				c0-2.617-1.853-4.143-4.252-4.143s-4.252,1.526-4.252,4.143v26.928c0,2.289,1.526,4.143,4.143,4.143h25.402v3.707
				c0,2.617,1.853,4.143,4.143,4.143c2.398,0,4.143-1.526,4.143-4.143v-7.741C465.344,81.311,463.709,79.894,461.202,79.894"/>
			<path d="M418.901,79.894h-2.18V56.999c0-2.617-1.962-4.143-4.252-4.143c-2.289,0-4.143,1.526-4.143,4.143v22.895h-14.609V56.999
				c0-2.617-1.853-4.143-4.252-4.143s-4.252,1.526-4.252,4.143v26.928c0,2.289,1.526,4.143,4.143,4.143h25.402v3.707
				c0,2.617,1.853,4.143,4.143,4.143c2.398,0,4.143-1.526,4.143-4.143v-7.741C423.044,81.311,421.409,79.894,418.901,79.894"/>
			<path d="M371.912,53.183h-0.327c-2.508,0-4.143,1.199-5.887,3.707l-13.737,19.515V56.999c0-2.617-1.744-4.143-4.034-4.143
				c-2.398,0-4.143,1.526-4.143,4.143v26.274c0,2.835,1.853,4.688,4.688,4.688h0.436c2.617,0,4.361-1.308,5.996-3.707l13.737-19.515
				v19.515c0,2.617,1.744,4.143,4.034,4.143s4.034-1.526,4.034-4.143V57.871C376.709,55.037,374.965,53.183,371.912,53.183"/>
			<path d="M330.92,53.183h-23.549c-2.726,0-4.143,1.853-4.143,4.143v26.928c0,2.617,1.962,4.143,4.252,4.143
				c2.289,0,4.143-1.526,4.143-4.143V61.36h15.045v22.895c0,2.617,1.853,4.143,4.252,4.143c2.289,0,4.252-1.526,4.252-4.252V57.217
				C335.172,55.037,333.646,53.183,330.92,53.183"/>
		</g>
		<g>
			<path d="M269.977,52.965c-10.139,0-17.88,7.632-17.88,17.771c0,10.248,7.741,17.771,17.88,17.771
				c10.03,0,17.88-7.741,17.88-17.88C287.747,60.379,280.007,52.965,269.977,52.965z M269.977,80.439
				c-5.56,0-9.485-4.143-9.485-9.812c0-5.56,4.034-9.703,9.485-9.703c5.56,0,9.485,4.143,9.485,9.703
				C279.462,76.296,275.646,80.439,269.977,80.439z"/>
			<path d="M246.21,79.894h-2.18V57.326c0-2.289-1.526-4.143-4.143-4.143H220.59c-2.29,0-3.816,1.526-3.816,4.143v5.451
				c0,3.925-0.109,6.977-0.763,10.248c-0.654,3.162-1.526,5.233-2.726,6.868h-0.981c-2.726,0-4.034,1.744-4.034,4.143v7.741
				c0,2.617,1.853,4.143,4.143,4.143c2.398,0,4.143-1.526,4.143-4.143V88.07h25.402v3.707c0,2.617,1.853,4.143,4.143,4.143
				c2.398,0,4.143-1.526,4.143-4.143v-7.741C250.353,81.638,249.044,79.894,246.21,79.894z M235.635,79.894h-13.737
				c0.872-1.853,1.526-3.489,2.071-5.887c0.545-2.617,0.763-5.233,0.872-8.613l0.109-4.034h10.684V79.894z"/>
			<path d="M189.627,52.965c-10.139,0-17.88,7.632-17.88,17.771c0,10.248,7.741,17.771,17.88,17.771
				c10.03,0,17.88-7.741,17.88-17.88C207.507,60.379,199.766,52.965,189.627,52.965z M189.627,80.439
				c-5.56,0-9.485-4.143-9.485-9.812c0-5.56,4.034-9.703,9.485-9.703c5.56,0,9.485,4.143,9.485,9.703
				C199.112,76.296,195.406,80.439,189.627,80.439z"/>
			<path d="M165.642,79.894h-2.18V57.326c0-2.289-1.526-4.143-4.143-4.143h-19.297c-2.289,0-3.816,1.526-3.816,4.143v5.451
				c0,3.925,0,6.977-0.763,10.248c-0.654,3.162-1.526,5.233-2.726,6.868h-0.872c-2.726,0-4.034,1.744-4.034,4.143v7.741
				c0,2.617,1.853,4.143,4.143,4.143c2.398,0,4.143-1.526,4.143-4.143V88.07H161.5v3.707c0,2.617,1.853,4.143,4.143,4.143
				c2.398,0,4.143-1.526,4.143-4.143v-7.741C169.785,81.638,168.477,79.894,165.642,79.894z M155.067,79.894h-13.737
				c0.872-1.853,1.526-3.489,2.071-5.887c0.545-2.617,0.763-5.233,0.872-8.613l0.109-4.034h10.684L155.067,79.894z"/>
		</g>
	</g>
</g>
</svg>
